<?xml version="1.0" standalone="no"?>
<svg xmlns="http://www.w3.org/2000/svg" viewBox="0 0 301.7324141935038 148.6924141935038" width="301.7324141935038" height="148.6924141935038"><rect fill="#0b005d" width="301.7324141935038" height="148.6924141935038" x="0" y="0"></rect><g fill="white" color="white" transform="translate(12 12) scale(1.2469242)"><svg width="100.0" height="100.0" x="0.0" y="0.0" viewBox="0 0 100 100"><path d="M98.9,43.4c0,1.5-1.2,2.7-2.7,2.7H85c-1.5,0-2.7-1.2-2.7-2.7v-0.1c0-1.5,1.2-2.7,2.7-2.7h11.2  C97.7,40.6,98.9,41.8,98.9,43.4L98.9,43.4z M93.1,27.2l-10.6,4.2c-1.3,0.5-2,2-1.6,3.4c0.5,1.5,2.1,2.3,3.6,1.7l10.6-4.2  c1.3-0.5,2-2,1.6-3.4C96.2,27.4,94.6,26.6,93.1,27.2z M82.5,55.3l10.6,4.2c1.5,0.6,3.1-0.2,3.6-1.7c0.4-1.4-0.3-2.8-1.6-3.4  l-10.6-4.2c-1.5-0.6-3.1,0.2-3.6,1.7C80.4,53.3,81.1,54.8,82.5,55.3z M76,43.8c0,4.4-2.8,8.1-6.6,9.6v17.7c0,1.6-1.1,3-2.7,3.2  c-1.8,0.2-3.3-1.1-3.4-2.8c-9.7-9.2-23.5-12.7-31.9-14.1v2.9h-6.3L28.3,85l-1.2,0.3l-4,0.9l-1.2,0.3l-7.9-26.2h-1.7  c-3.8,0-6.9-3.1-6.9-6.9v-2.6H3.4c-1.3,0-2.3-1-2.3-2.3v-8.6c0-1.3,1-2.3,2.3-2.3h2.1v-3.1c0-3.8,3.1-6.9,6.9-6.9h19.1v2.9  c8.4-1.4,22.2-4.9,31.9-14.1c0.1-1.7,1.6-3,3.4-2.8c1.6,0.2,2.7,1.6,2.7,3.2v17.6C73.3,35.7,76,39.4,76,43.8z M24.2,34.8H12.7V53  h11.5V34.8z"></path></svg></g><path fill="white" fill-rule="nonzero" d="M26.16 30.32L20.08 30.80L20.08 8.28L14.48 30.56L10.88 30.56L4.84 8.20L4.84 30.32L0 30.56L0 0.84L8.60 0.60L13.56 19.16L18.32 1.28L26.16 0.80L26.16 30.32ZM34.68 30.56L29.44 30.56L35.76 0.92L44.12 0.56L50.60 30.32L44.20 30.56L43.12 24.12L35.96 24.12L34.68 30.56ZM39.28 4.96L37.04 19.32L42.04 19.32L39.28 4.96ZM72.68 30.32L67.84 30.80L59.08 12.04L59.08 30.32L53.84 30.56L53.84 0.80L59.96 0.56L67.72 18.40L67.72 1.04L72.68 0.56L72.68 30.32ZM81.20 30.56L75.96 30.56L82.28 0.92L90.64 0.56L97.12 30.32L90.72 30.56L89.64 24.12L82.48 24.12L81.20 30.56ZM85.80 4.96L83.56 19.32L88.56 19.32L85.80 4.96ZM107.72 31.12Q103.28 31.12 101.22 26.68Q99.16 22.24 99.16 15.44L99.16 15.44Q99.16 11.64 100.14 8.12Q101.12 4.60 103.30 2.30Q105.48 0 108.88 0L108.88 0Q111.80 0 113.74 1.42Q115.68 2.84 116.62 5.18Q117.56 7.52 117.56 10.36L117.56 10.36L112 10.72L111.88 9.88Q111.64 7.52 111.04 6.12Q110.44 4.72 108.80 4.72L108.80 4.72Q106.72 4.72 105.86 8.06Q105 11.40 105 15.76L105 15.76Q105 18.84 105.20 21Q105.40 23.16 106.24 24.78Q107.08 26.40 108.84 26.40L108.84 26.40Q110.32 26.40 111.18 24.56Q112.04 22.72 112.04 20.04L112.04 20.04L109.08 20.04L109.56 15.56L117.68 15.56L117.68 30.32L115.44 30.56L114.08 25Q113.72 26.56 113.18 27.80Q112.64 29.04 111.32 30.08Q110 31.12 107.72 31.12L107.72 31.12ZM137.56 30.56L122.48 30.56L122.48 0.56L137.72 0.56L137.24 5.24L128.36 5.24L128.36 12.40L134.68 12.40L134.64 17.44L128.36 17.44L128.36 25.88L138.04 25.88L137.56 30.56Z" transform="translate(151.693 12.001) scale(1)"></path><path fill="white" fill-rule="nonzero" d="M9.80 31.12Q6.16 31.12 3.66 29.10Q1.16 27.08 0 23.68L0 23.68L4.96 21.36L5.44 22.16Q6.60 24.16 7.66 25.28Q8.72 26.40 10.32 26.40L10.32 26.40Q11.36 26.40 12.18 25.40Q13 24.40 13 23.20L13 23.20Q13 22.08 12.44 21.16Q11.88 20.24 11 19.68L11 19.68L5.76 16.56Q3.48 15.28 2.12 13.32Q0.76 11.36 0.76 8.92L0.76 8.92Q0.76 6.32 1.98 4.28Q3.20 2.24 5.30 1.12Q7.40 0 10.04 0L10.04 0Q13.12 0 15.28 1.52Q17.44 3.04 18.48 6.04L18.48 6.04L13.52 8.28Q13.36 7.96 12.84 6.84Q12.32 5.72 11.58 5.22Q10.84 4.72 9.76 4.72L9.76 4.72Q8.44 4.72 7.74 5.56Q7.04 6.40 7.04 7.72L7.04 7.72Q7.04 8.68 7.58 9.46Q8.12 10.24 8.88 10.68L8.88 10.68L13.72 13.52Q19.08 16.56 19.36 21.52L19.36 21.52Q19.36 24.36 18.10 26.54Q16.84 28.72 14.66 29.92Q12.48 31.12 9.80 31.12L9.80 31.12ZM31.28 31.12Q26.20 31.12 24.14 26.74Q22.08 22.36 22.08 15.40L22.08 15.40Q22.08 8.00 24.28 4Q26.48 0 31.36 0L31.36 0Q40.68 0 40.68 15.24L40.68 15.24Q40.68 22.08 38.58 26.60Q36.48 31.12 31.28 31.12L31.28 31.12ZM31.36 26.40Q33.48 26.40 34.16 23.62Q34.84 20.84 34.84 15.20L34.84 15.20Q34.84 10.68 34.18 7.70Q33.52 4.72 31.36 4.72L31.36 4.72Q29.20 4.72 28.56 7.68Q27.92 10.64 27.92 15.16L27.92 15.16Q27.92 20.84 28.58 23.62Q29.24 26.40 31.36 26.40L31.36 26.40ZM53.32 31.12Q48.16 31.12 46.06 26.44Q43.96 21.76 43.96 14.92L43.96 14.92Q43.96 11.24 44.92 7.84Q45.88 4.44 48.02 2.22Q50.16 0 53.44 0L53.44 0Q55.96 0 57.86 1.56Q59.76 3.12 60.78 5.62Q61.80 8.12 61.80 10.84L61.80 10.84L56.12 11.12Q56.12 9.32 55.52 7.02Q54.92 4.72 53.12 4.72L53.12 4.72Q51.24 4.72 50.52 7.72Q49.80 10.72 49.80 14.92L49.80 14.92Q49.80 20.12 50.60 23.26Q51.40 26.40 53.68 26.40L53.68 26.40Q55.28 26.40 55.96 24.50Q56.64 22.60 56.84 19.88L56.84 19.88L61.84 20.36Q61.84 23.24 60.88 25.70Q59.92 28.16 58 29.64Q56.08 31.12 53.32 31.12L53.32 31.12ZM71.92 30.32L66.04 30.80L66.04 1.04L71.92 0.56L71.92 30.32ZM80.44 30.56L75.20 30.56L81.52 0.92L89.88 0.56L96.36 30.32L89.96 30.56L88.88 24.12L81.72 24.12L80.44 30.56ZM85.04 4.96L82.80 19.32L87.80 19.32L85.04 4.96ZM114.68 30.56L99.60 30.56L99.60 1.04L105.44 0.56L105.44 25.88L115.28 25.88L114.68 30.56Z" transform="translate(151.693 51.121) scale(1.198)"></path><path fill="white" fill-rule="nonzero" d="M26.16 29.76L20.08 30.24L20.08 7.72L14.48 30L10.88 30L4.84 7.64L4.84 29.76L0 30L0 0.28L8.60 0.04L13.56 18.60L18.32 0.72L26.16 0.24L26.16 29.76ZM46.84 30L31.76 30L31.76 0L47 0L46.52 4.68L37.64 4.68L37.64 11.84L43.96 11.84L43.92 16.88L37.64 16.88L37.64 25.32L47.32 25.32L46.84 30ZM51.08 30L51.08 0L57.24 0Q63.16 0 66.08 3.76Q69 7.52 69 15.12L69 15.12Q69 19.16 67.90 22.52Q66.80 25.88 64.40 27.94Q62 30 58.28 30L58.28 30L51.08 30ZM56.92 25.32L57.76 25.32Q60.80 25.32 61.98 22.70Q63.16 20.08 63.16 16.24L63.16 16.24L63.16 14.88Q63.16 12.12 62.82 9.98Q62.48 7.84 61.26 6.26Q60.04 4.68 57.60 4.68L57.60 4.68L56.92 4.68L56.92 25.32ZM79.12 29.76L73.24 30.24L73.24 0.48L79.12 0L79.12 29.76ZM87.64 30L82.40 30L88.72 0.36L97.08 0L103.56 29.76L97.16 30L96.08 23.56L88.92 23.56L87.64 30ZM92.24 4.40L90 18.76L95 18.76L92.24 4.40Z" transform="translate(151.693 96.386) scale(1.333)"></path></svg>